<svg width="91" height="91" viewBox="0 0 331 331" fill="none" xmlns="http://www.w3.org/2000/svg">
<g clip-path="url(#clip0)">
<path d="M89.3629 179.593L157.377 296.95C160.979 303.166 169.998 303.202 173.622 296.95L241.636 179.593C245.256 173.347 240.744 165.497 233.513 165.497H97.4858C90.2681 165.497 85.7372 173.337 89.3629 179.593Z" fill="#9DE5FA"/>
<path d="M174.744 293.697L97.3419 160.14C93.242 153.066 82.9778 153.024 78.8538 160.14L1.452 293.697C-2.66741 300.805 2.46727 309.738 10.6964 309.738H165.499C173.714 309.738 178.87 300.816 174.744 293.697Z" fill="#01A0FF"/>
<path d="M329.547 293.697L252.146 160.14C248.046 153.066 237.781 153.024 233.657 160.14L156.255 293.697C152.136 300.805 157.27 309.738 165.499 309.738H320.303C328.517 309.738 333.674 300.816 329.547 293.697Z" fill="#01A0FF"/>
<path d="M252.146 160.14L174.744 26.5831C170.644 19.5092 160.38 19.4671 156.256 26.5831L78.8538 160.14C74.7344 167.248 79.8691 176.181 88.0982 176.181H242.901C251.115 176.181 256.272 167.26 252.146 160.14Z" fill="#01A0FF"/>
<path d="M329.547 293.697L174.744 26.5831C170.644 19.5092 160.38 19.4671 156.256 26.5831L1.452 293.697C-2.66741 300.805 2.46727 309.738 10.6964 309.738H320.303C328.517 309.738 333.674 300.816 329.547 293.697ZM165.499 277.746L106.638 176.181H224.36L165.499 277.746ZM165.499 53.249L224.361 154.813H106.639L165.499 53.249ZM29.2376 288.369L88.0982 186.805L146.959 288.369H29.2376ZM184.04 288.369L242.901 186.805L301.762 288.369H184.04Z" fill="#5129FB"/>
</g>
<defs>
<clipPath id="clip0">
<rect width="331" height="331" fill="white"/>
</clipPath>
</defs>
</svg>
