<svg width="91" height="91" viewBox="0 0 91 91" fill="none" xmlns="http://www.w3.org/2000/svg">
<g clip-path="url(#clip0)">
<path d="M91 45.4769C91 53.7664 84.2799 60.4865 75.9903 60.4865H15.0097C6.72014 60.4865 0 53.7664 0 45.4769C0 38.9185 4.20697 33.3465 10.0704 31.3043C9.58877 23.9284 15.438 17.7983 22.7073 17.7983C24.666 17.7983 26.5197 18.2444 28.1745 19.0371C31.0893 12.3579 37.749 7.69055 45.5 7.69055C53.251 7.69055 59.9107 12.3579 62.8256 19.0371C64.4803 18.2444 66.334 17.7983 68.2927 17.7983C75.578 17.7983 81.4112 23.9444 80.9314 31.3043C86.793 33.3465 91 38.9185 91 45.4769Z" fill="#F97C64"/>
<path d="M91 45.4769C91 53.7664 84.2799 60.4865 75.9903 60.4865H45.5V7.69055C53.251 7.69055 59.9107 12.3579 62.8255 19.0371C64.4803 18.2444 66.334 17.7983 68.2927 17.7983C75.578 17.7983 81.4112 23.9444 80.9313 31.3043C86.793 33.3465 91 38.9185 91 45.4769Z" fill="#FA566A"/>
<path d="M73.3071 61.3596L67.3234 56.3664C67.4551 55.3917 67.5196 54.4438 67.5196 53.4998C67.5196 52.5558 67.455 51.608 67.3234 50.6331L73.3071 45.6399C74.0249 45.0409 74.2097 44.0071 73.7451 43.1927L68.6817 34.3068C68.2183 33.491 67.2412 33.1357 66.3715 33.468L59.0991 36.2282C57.6029 35.061 55.9661 34.1042 54.213 33.3705L52.9357 25.6082C52.7837 24.6798 51.9913 24 51.0635 24H40.9366C40.0087 24 39.2164 24.6798 39.0644 25.6084L37.7871 33.3707C36.0339 34.1044 34.3972 35.0612 32.901 36.2284L25.6285 33.4682C24.7615 33.1347 23.7829 33.4912 23.3183 34.307L18.2549 43.1929C17.7903 44.0074 17.9751 45.0411 18.6929 45.6401L24.6766 50.6333C24.5449 51.6081 24.4804 52.556 24.4804 53.5C24.4804 54.444 24.545 55.3918 24.6766 56.3667L18.6929 61.3599C17.9751 61.9589 17.7903 62.9926 18.2549 63.8071L23.3183 72.693C23.7829 73.5088 24.7627 73.8666 25.6285 73.5318L32.9009 70.7716C34.3971 71.9388 36.0339 72.8956 37.787 73.6293L39.0643 81.3916C39.2158 82.3205 40.0109 83 40.9365 83H51.0634C51.9906 83 52.7832 82.3208 52.9356 81.3916L54.2129 73.6293C55.9661 72.8956 57.6028 71.9388 59.0991 70.7716L66.3715 73.5318C67.2398 73.8653 68.2171 73.5088 68.6817 72.693L73.7451 63.8071C74.2097 62.9924 74.0249 61.9586 73.3071 61.3596Z" fill="#F7BE5A"/>
<path d="M73.7451 63.8071L68.6817 72.693C68.2171 73.5088 67.2398 73.8653 66.3715 73.5318L59.0991 70.7716C57.6028 71.9388 55.9661 72.8956 54.2129 73.6293L52.9356 81.3916C52.7832 82.3208 51.9906 83 51.0634 83L46.0798 82.9998V24H51.0635C51.9913 24 52.7837 24.6798 52.9357 25.6082L54.213 33.3705C55.9661 34.1042 57.6029 35.061 59.0991 36.2282L66.3715 33.468C67.2412 33.1357 68.2183 33.491 68.6817 34.3068L73.7451 43.1927C74.2097 44.0071 74.0249 45.0409 73.3071 45.6399L67.3234 50.6331C67.455 51.608 67.5196 52.5558 67.5196 53.4998C67.5196 54.4438 67.4551 55.3917 67.3234 56.3664L73.3071 61.3596C74.0249 61.9586 74.2097 62.9924 73.7451 63.8071Z" fill="#F7BE5A"/>
<circle cx="45.5" cy="53.5" r="11.5" fill="white"/>
</g>
<defs>
<clipPath id="clip0">
<rect width="91" height="91" fill="white"/>
</clipPath>
</defs>
</svg>
