<svg width="68" height="74" viewBox="0 0 68 74" fill="none" xmlns="http://www.w3.org/2000/svg">
<path d="M67.9991 17.3546C67.9991 16.5206 67.5182 15.7606 66.7623 15.3999L34.9426 0.213985C34.3466 -0.0703264 33.653 -0.0703264 33.057 0.213985L1.23714 15.3999C0.481253 15.7606 0.000435956 16.5208 0.000435956 17.3546L0 56.6457C0 57.4797 0.480963 58.2397 1.23684 58.6005L33.0573 73.7865C33.3553 73.9286 33.6777 73.9999 34 73.9999C34.3224 73.9999 34.6449 73.9287 34.9427 73.7865L66.7632 58.6005C67.519 58.2397 68 57.4796 68 56.6457L67.9991 17.3546Z" fill="#0085FF"/>
<path d="M67.9992 17.354C67.9992 16.52 67.5182 15.76 66.7623 15.3992L34.9426 0.213342C34.6446 0.071114 34.3223 0 33.9999 0V73.9994C34.3223 73.9994 34.6447 73.9283 34.9426 73.786L66.763 58.6C67.5189 58.2392 67.9999 57.4791 67.9999 56.6452L67.9992 17.354Z" fill="#0066FF"/>
<path d="M58.6774 23.1903C58.6774 22.8622 58.602 22.546 58.4657 22.2606L9.54103 22.2468C9.40052 22.5358 9.3225 22.8568 9.3225 23.1901L9.3222 50.8091C9.3222 51.643 9.80317 52.4031 10.559 52.7639L33.0572 63.5011C33.3552 63.6432 33.6777 63.7144 34 63.7144C34.3224 63.7144 34.6448 63.6433 34.9427 63.5011L57.441 52.7639C58.1969 52.4031 58.6779 51.643 58.6779 50.8091L58.6774 23.1903Z" fill="#4AB0FF"/>
<path d="M58.4655 22.2606H33.9999V63.7146C34.3223 63.7146 34.6447 63.6435 34.9426 63.5012L57.4409 52.764C58.1968 52.4033 58.6778 51.6431 58.6778 50.8093L58.6773 23.1903C58.6773 22.8622 58.6018 22.5459 58.4655 22.2606Z" fill="#01A0FF"/>
<path d="M57.4404 21.2354L34.9426 10.4983C34.3465 10.214 33.653 10.214 33.0569 10.4983L10.5591 21.2354C10.1054 21.4519 9.75188 21.8129 9.54089 22.2469L34 33.9275L58.4657 22.2606C58.2553 21.8206 57.899 21.4542 57.4404 21.2354Z" fill="#A0EEFF"/>
<path d="M57.4405 21.2353L34.9426 10.4983C34.6446 10.3562 34.3222 10.2849 33.9999 10.2849V33.9273L58.4656 22.2604C58.2554 21.8206 57.8991 21.4542 57.4405 21.2353Z" fill="#74E6FF"/>
</svg>
