<svg width="67" height="68" viewBox="0 0 67 68" fill="none" xmlns="http://www.w3.org/2000/svg">
<path d="M53.4531 47.182H63.8618C64.4753 47.182 65.0636 47.4257 65.4974 47.8595C65.9312 48.2933 66.1748 48.8816 66.1748 49.4951V61.0603C66.1748 62.9006 65.4438 64.6656 64.1424 65.967C62.8411 67.2683 61.0761 67.9994 59.2357 67.9994H53.4531V47.182Z" fill="#5508B7"/>
<path d="M3.62066 0.921204H53.5059C54.2022 0.921204 54.8701 1.1649 55.3624 1.59868C55.8548 2.03246 56.1314 2.62079 56.1314 3.23424V67.9994H8.87173C6.78273 67.9994 4.77928 67.2683 3.30213 65.9669C1.82497 64.6656 0.995117 62.9006 0.995117 61.0602V3.23424C0.995117 2.62079 1.27174 2.03246 1.76412 1.59868C2.2565 1.1649 2.92432 0.921204 3.62066 0.921204Z" fill="#8627FF"/>
<path d="M3.62066 0.921204H53.5059C54.2022 0.921204 54.8701 1.1649 55.3624 1.59868C55.8548 2.03246 56.1314 2.62079 56.1314 3.23424V12.4864H0.995117V3.23424C0.995117 2.62079 1.27174 2.03246 1.76412 1.59868C2.2565 1.1649 2.92432 0.921204 3.62066 0.921204Z" fill="#BD68FF"/>
<rect x="7.11523" y="18.2205" width="42.896" height="7.22825" rx="1.44565" fill="#B14EFF"/>
<rect x="7.11523" y="29.7857" width="42.896" height="7.22825" rx="1.44565" fill="#B14EFF"/>
<rect x="7.11523" y="41.3509" width="42.896" height="7.22825" rx="1.44565" fill="#B14EFF"/>
<path d="M7.11523 19.6662C7.11523 18.8677 7.76247 18.2205 8.56088 18.2205H28.5632V25.4488H8.56088C7.76247 25.4488 7.11523 24.8015 7.11523 24.0031V19.6662Z" fill="#BD68FF"/>
<path d="M7.11523 31.2313C7.11523 30.4329 7.76247 29.7857 8.56088 29.7857H28.5632V37.0139H8.56088C7.76247 37.0139 7.11523 36.3667 7.11523 35.5683V31.2313Z" fill="#BD68FF"/>
<path d="M7.11523 42.7965C7.11523 41.9981 7.76247 41.3509 8.56088 41.3509H28.5632V48.5791H8.56088C7.76247 48.5791 7.11523 47.9319 7.11523 47.1335V42.7965Z" fill="#BD68FF"/>
</svg>
