<svg width="72" height="80" viewBox="0 0 72 80" fill="none" xmlns="http://www.w3.org/2000/svg">
<path d="M65.6214 15.1098L42.3667 1.69851C38.4398 -0.566247 33.5603 -0.566092 29.6333 1.69851L6.3788 15.1098C2.44414 17.3787 0 21.6102 0 26.1527V52.9545C0 57.497 2.44414 61.7284 6.37864 63.9973L29.6333 77.4087C33.561 79.6739 38.4403 79.6731 42.3667 77.4087L65.6212 63.9973C69.5559 61.7284 72 57.497 72 52.9545V26.1527C72 21.6104 69.5559 17.3789 65.6214 15.1098ZM65.8197 52.9545C65.8197 55.2943 64.5608 57.4739 62.534 58.6426L39.2794 72.0539C37.2565 73.2208 34.7434 73.2208 32.7204 72.0539L9.46584 58.6426C7.43918 57.4738 6.18026 55.2943 6.18026 52.9545V26.1527C6.18026 23.813 7.43918 21.6334 9.46599 20.4647L32.7204 7.05339C34.7436 5.88656 37.2574 5.88702 39.2796 7.05339L62.5342 20.4646C64.5608 21.6334 65.8197 23.8129 65.8197 26.1527V52.9545Z" fill="#8729FF"/>
<path d="M65.8197 52.9545C65.8197 55.2943 64.5608 57.4739 62.534 58.6426L39.2794 72.0539C37.2565 73.2208 34.7434 73.2208 32.7204 72.0539L9.46584 58.6426C7.43918 57.4738 6.18026 55.2943 6.18026 52.9545V26.1527C6.18026 23.813 7.43918 21.6334 9.46599 20.4647L32.7204 7.05339C34.7436 5.88656 37.2574 5.88702 39.2796 7.05339L62.5342 20.4646C64.5608 21.6334 65.8197 23.8129 65.8197 26.1527V52.9545Z" fill="#8729FF"/>
<path d="M65.5527 15.1098C65.5527 15.1098 44.6122 3.39703 42.352 1.69852C40.0918 0 36 0 36 0V79.1073C37.0522 79.1568 39.7956 78.8864 42.352 77.4087L65.5525 63.9974C69.4781 61.7284 71.9165 57.497 71.9165 52.9545V26.1527C71.9165 21.6104 69.4781 17.3789 65.5527 15.1098Z" fill="#5508B7"/>
<path d="M62.2435 35.1274L62.2435 35.1273L49.2408 23.7459C49.2408 23.7459 49.2408 23.7459 49.2407 23.7459C47.3353 22.0779 44.4774 22.3302 42.874 24.2905C41.2868 26.231 41.515 29.1296 43.4006 30.7801L44.0592 30.0277L43.4006 30.7801L52.3853 38.6446L43.4006 46.509L44.0581 47.2602L43.4006 46.509C41.515 48.1595 41.287 51.0581 42.8739 52.9985L42.874 52.9987C44.4815 54.9635 47.3401 55.2068 49.2407 53.543C49.2408 53.543 49.2408 53.543 49.2408 53.543L62.2435 42.1616C64.3537 40.3145 64.3472 36.9689 62.2435 35.1274Z" fill="#BD68FF" stroke="#BD68FF" stroke-width="2"/>
<path d="M10.6658 35.1274L10.6658 35.1273L23.6685 23.7459C23.6685 23.7459 23.6685 23.7459 23.6686 23.7459C25.574 22.0779 28.4319 22.3302 30.0353 24.2905C31.6225 26.231 31.3943 29.1296 29.5087 30.7801L28.8501 30.0277L29.5087 30.7801L20.524 38.6446L29.5087 46.509L28.8512 47.2602L29.5087 46.509C31.3944 48.1595 31.6223 51.0581 30.0354 52.9985L30.0353 52.9987C28.4278 54.9635 25.5692 55.2068 23.6686 53.543C23.6685 53.543 23.6685 53.543 23.6685 53.543L10.6658 42.1616C8.55556 40.3145 8.56211 36.9689 10.6658 35.1274Z" fill="#BD68FF" stroke="#BD68FF" stroke-width="2"/>
</svg>
