<svg width="65" height="69" viewBox="0 0 65 69" fill="none" xmlns="http://www.w3.org/2000/svg">
<path d="M63.0898 15.5403C61.5269 13.9434 56.4984 8.57516 54.6977 7.21611C54.0521 6.74045 53.3726 6.40068 52.6931 5.95899C50.4846 4.63392 48.1063 3.81849 45.5921 3.17294C43.0439 2.5274 40.4956 2.45944 37.9474 2.59535C36.3505 2.6633 34.7876 2.96909 33.2587 3.41078C31.9336 3.78452 30.6765 4.29416 29.4194 4.87175C25.9199 6.46864 22.9979 8.81299 20.6196 11.8029C18.1733 14.8608 16.6104 18.3603 16.1007 22.1996C15.6251 25.5972 15.8969 28.9949 17.0181 32.2566C18.2073 35.7221 20.042 38.8479 22.3863 41.668C22.6921 42.0417 22.862 42.6193 23.5075 42.6873C24.4589 43.8085 25.648 44.9637 26.8032 45.881C26.7013 46.0509 26.4635 46.0849 26.2936 46.0509C25.4102 45.915 24.5608 46.1189 23.6434 46.1528C20.2119 46.3567 16.5764 45.7111 13.2807 44.8278C9.40742 43.8424 5.60209 42.0417 3.01989 38.814C1.76277 37.285 0.709513 35.7561 0.335774 33.8195C0.301798 33.6496 0.19987 33.4118 0.0639648 33.4457C0.0639648 33.4457 0.301798 30.4558 0.335774 30.218C0.471679 29.1647 0.64156 28.1115 0.845417 27.0922C1.28711 24.9857 1.93266 22.9471 2.78206 20.9765C4.03918 18.0885 5.67004 15.4044 7.60668 12.9241C9.54332 10.4439 11.8537 8.33733 14.4019 6.46864C18.8188 3.34283 23.6774 1.30425 29.0117 0.454849C35.8749 -0.632389 42.5342 0.217015 48.8538 3.13897C52.9309 4.97368 56.4645 7.55587 59.5563 10.8176C59.7262 11.0554 63.3956 15.2005 63.0898 15.5403Z" fill="#F7BE5A"/>
<path d="M59.9291 11.2933C59.9631 11.3273 59.9631 11.3273 59.997 11.3613C61.3901 12.7883 62.5792 14.4531 63.5985 16.2199C64.0402 17.0353 64.312 17.9526 64.4479 18.87C64.7537 20.7727 64.6858 22.6753 63.9723 24.4761C62.4773 28.2135 59.7592 30.4559 55.818 31.1354C52.964 31.6111 50.4158 30.8636 48.0714 29.2327C46.9162 28.4173 46.1348 27.3301 45.2854 26.2768C43.9943 24.578 42.3294 23.3209 40.4268 22.3356C38.1164 21.1804 35.6361 20.9086 33.0879 21.0785C32.5443 21.1124 31.4952 21.2336 30.9516 21.3355C30.8836 21.3015 30.685 21.1369 30.6511 21.035C28.9862 18.0791 29.0787 14.6909 29.7243 11.3952C29.9961 9.96824 30.4378 8.54124 31.0153 7.21617C31.2872 6.53664 31.6269 5.8911 31.9667 5.21157C32.2045 4.80386 32.8458 3.44142 33.3554 3.30551C34.8844 2.86382 36.5666 2.50594 38.1634 2.40401C40.7117 2.26811 44.1981 2.62938 46.7463 3.30891C52.0806 4.63398 56.1238 7.35207 59.9291 11.2933Z" fill="#FA566A"/>
<path d="M23.5406 42.7892C23.5406 42.7892 23.4047 42.7892 23.1668 42.6532C22.963 42.5513 22.6572 42.3135 22.5553 42.2116C18.8179 38.1684 16.4056 32.8001 15.862 27.296C15.3523 22.3695 16.5415 17.239 19.2936 13.1279C21.8078 9.35657 25.3753 6.70643 29.4864 4.83774C30.7096 4.29412 32.0304 3.61131 33.3554 3.30552C33.2535 3.40745 33.1219 3.54664 33.0199 3.61459C32.884 3.78447 32.7481 3.95436 32.6122 4.15821C30.4377 7.82764 29.0447 12.3805 29.7582 16.6954C29.9961 18.1904 30.5057 19.6174 31.2532 20.9425C31.2872 21.0104 31.491 21.1463 31.559 21.2143C29.6223 21.5201 27.7876 22.4034 26.1907 23.6266C23.4047 25.835 21.6719 28.6551 21.0603 32.1546C20.7885 33.7855 20.8225 36.0619 21.2642 37.9985C21.8418 40.5807 23.4387 42.5853 23.4726 42.5853C23.5066 42.6872 23.5406 42.7892 23.5406 42.7892Z" fill="#F97C64"/>
<path d="M0.0290753 33.3099C0.131004 33.3099 0.232932 33.3439 0.232932 33.4458C0.606671 35.6882 1.99969 37.353 3.29079 39.0858C4.95562 41.2943 7.36793 42.4835 9.88217 43.5027C12.2265 44.4541 14.6388 45.0996 17.1871 45.4394C18.648 45.6432 20.143 45.7791 21.604 45.8811C23.1669 45.983 24.7298 45.915 26.2927 45.949C26.4286 45.949 26.5985 45.983 26.6664 45.8471C27.8556 46.4926 29.0447 47.2061 30.3698 47.6139C35.4323 49.0409 39.9171 48.0216 43.8244 44.522C43.9603 44.3861 45.9649 42.3815 46.1688 42.3815C46.2367 43.0271 43.7904 45.2015 43.4507 45.5413C41.0723 48.2594 38.1504 50.298 34.7867 51.623C31.9667 52.7103 29.0447 53.2879 26.0209 53.3558C19.9731 53.4578 14.3331 51.9288 9.20265 48.7011C5.7031 46.4926 2.78115 43.6726 1.08234 39.7993C0.640647 38.814 0.266909 37.8287 0.0630515 36.7755C0.0290753 35.5863 -0.0388771 34.4311 0.0290753 33.3099Z" fill="#F97C64"/>
<path d="M44.4699 44.1821C45.3873 42.9589 46.2027 41.7018 47.3239 40.6485C47.9695 40.037 48.683 39.4934 49.4644 39.0856C50.5177 38.542 51.6389 38.2023 52.8281 38.0324C53.3717 37.9644 53.8813 37.9304 54.4249 37.9304C59.6233 37.9644 64.1761 42.2115 64.6178 47.3419C64.8896 50.6375 63.7004 53.3217 61.6959 55.8019C56.5994 62.1895 50.076 66.3006 42.1595 68.1693C40.2229 68.6449 38.2523 68.8488 36.2817 68.9507C30.5397 69.2565 25.0695 68.1353 19.8712 65.723C15.3523 63.6165 11.479 60.5926 8.2513 56.8212C3.66451 51.385 0.980391 45.1334 0.232914 38.0664C0.198938 37.6926 0.164962 37.2849 0.130986 36.9112C0.0970097 36.7753 0.130986 36.5714 0.0970097 36.3336C0.0970097 36.2996 0.0630335 35.9938 0.0970097 35.9938C0.300867 37.0471 0.776534 38.7119 1.21822 39.6972C2.91703 43.5705 5.80501 46.3905 9.33854 48.599C14.4689 51.8267 20.075 53.3556 26.1568 53.2537C30.5737 53.1518 35.0585 51.9626 38.7959 49.5503C40.5627 48.3951 42.1595 47.0021 43.5186 45.4052C43.8244 45.0315 44.1641 44.6238 44.4699 44.1821Z" fill="#FA566A"/>
</svg>
