<svg width="107" height="107" viewBox="0 0 107 107" fill="none" xmlns="http://www.w3.org/2000/svg">
<path d="M37.713 44.8529C36.8987 44.6486 36.0395 44.9231 35.4926 45.56L23.7528 59.2654C22.5643 60.6531 22.092 62.4755 22.4571 64.266L25.1934 77.6808C25.4705 79.0385 26.4072 80.1472 27.6996 80.6468C28.9918 81.1464 30.4307 80.956 31.5488 80.138L43.4629 71.4195C43.5556 71.3517 43.6419 71.2777 43.7214 71.1981C44.2498 70.6696 44.4818 69.9017 44.3178 69.1568L39.3365 46.5244C39.1559 45.7044 38.5272 45.0573 37.713 44.8529Z" fill="#74E6FF"/>
<path d="M69.1663 44.853C68.352 45.0574 67.7233 45.7047 67.5428 46.5245L62.5616 69.1568C62.373 70.0138 62.7083 70.9013 63.4164 71.4196L75.3304 80.1382C76.4486 80.9564 77.8875 81.1465 79.1799 80.6469C79.7174 80.4391 80.1932 80.1259 80.5859 79.7332C81.1371 79.182 81.5242 78.4738 81.686 77.681L84.4223 64.266C84.7876 62.4758 84.3153 60.6531 83.1265 59.2655L71.3868 45.5602C70.8407 44.9225 69.9808 44.6487 69.1663 44.853Z" fill="#74E6FF"/>
<path d="M63.1616 76.3402C64.4078 76.3402 65.5847 75.7463 66.3084 74.7318C76.9226 59.8554 76.4555 39.2173 72.8718 27.9543C68.8925 15.4479 60.3398 6.57939 56.0318 2.71704C54.5555 1.39358 52.3238 1.39358 50.8475 2.71704C46.5396 6.57949 37.987 15.4479 34.0077 27.9544C30.424 39.2172 29.9569 59.8554 40.5711 74.7318C41.295 75.7462 42.4718 76.3401 43.718 76.3402L63.1616 76.3402Z" fill="#0084FF"/>
<path d="M53.4397 1.72456L53.4397 76.3403L63.1615 76.3403C64.4077 76.3403 65.5845 75.7463 66.3083 74.7319C76.9225 59.8555 76.4554 39.2174 72.8718 27.9545C68.8925 15.4481 60.3398 6.5796 56.0318 2.71726C55.2937 2.05553 54.3666 1.72466 53.4397 1.72456Z" fill="#0066FF"/>
<path d="M40.5711 74.7318C41.2949 75.7462 42.4717 76.3402 43.7179 76.3402L63.1615 76.3402C64.4077 76.3402 65.5845 75.7462 66.3084 74.7318C68.6179 71.4948 70.4023 67.9849 71.7447 64.3582L35.1349 64.3583C36.4771 67.9849 38.2616 71.4949 40.5711 74.7318Z" fill="#003FE2"/>
<path d="M53.4397 76.3402L63.1615 76.3402C64.4077 76.3402 65.5846 75.7462 66.3084 74.7318C68.618 71.4948 70.4023 67.9849 71.7447 64.3582L53.4398 64.3582L53.4397 76.3402Z" fill="#003FE2"/>
<path d="M53.4398 44.736C56.4923 44.736 59.2595 43.4949 61.2642 41.4898C63.2683 39.4853 64.5103 36.7172 64.5103 33.6655C64.5103 30.7083 63.3587 27.9283 61.2678 25.8374C59.1768 23.7465 56.3967 22.5948 53.4397 22.5949L53.4398 44.736Z" fill="#74E6FF"/>
<path d="M61.2641 41.4897C59.2593 43.4948 56.4922 44.7359 53.4397 44.7359C50.4827 44.736 47.7025 43.5844 45.6116 41.4935C43.5207 39.4026 42.3691 36.6224 42.3692 33.6654C42.3691 27.5613 47.3352 22.595 53.4396 22.595C56.3966 22.5949 59.1767 23.7465 61.2676 25.8374C63.3586 27.9284 64.5102 30.7085 64.5101 33.6655C64.5102 36.7172 63.2682 39.4852 61.2641 41.4897ZM44.5833 33.6655L44.5843 33.6644L44.5833 33.6655Z" fill="#74E6FF"/>
<path d="M48.7451 28.9709C47.5424 30.1736 46.7974 31.8342 46.7975 33.6654C46.7975 35.4396 47.4883 37.1077 48.7428 38.3623C49.9974 39.6169 51.6655 40.3076 53.4397 40.3076C57.1022 40.3076 60.0822 37.3278 60.0821 33.6652C60.082 31.891 59.3911 30.223 58.1365 28.9684C56.882 27.7138 55.2139 27.0229 53.4398 27.0229C51.6085 27.023 49.948 27.768 48.7451 28.9709Z" fill="#74E6FF"/>
<path d="M53.4398 27.0231L53.4398 40.3077C57.1023 40.3077 60.0823 37.3279 60.0821 33.6654C60.082 31.8912 59.3911 30.2232 58.1365 28.9686C56.8819 27.714 55.214 27.023 53.4398 27.0231Z" fill="#74E6FF"/>
<path d="M61.6895 77.3205H45.072C45.072 72.7018 48.7831 68.9738 53.3808 68.9738C57.9784 68.9738 61.6895 72.7018 61.6895 77.3205Z" fill="#74E6FF"/>
<path d="M61.6895 77.3205C61.6895 79.7318 59.4245 84.1758 57.2597 87.8726C55.4885 90.8973 51.2731 90.8973 49.5018 87.8726C47.337 84.1758 45.072 79.7318 45.072 77.3205H61.6895Z" fill="#74E6FF"/>
</svg>
