<svg width="67" height="79" viewBox="0 0 67 79" fill="none" xmlns="http://www.w3.org/2000/svg">
<path d="M0.823242 30.53V15.2247L33.5635 29.0246V45.3336L0.823242 30.53Z" fill="#F7CB5A"/>
<path d="M66.3037 30.53V15.2247L33.5635 29.0246V45.3336L66.3037 30.53Z" fill="#F97C64"/>
<path d="M0.823242 46.839V30.5188L33.5635 45.3336V61.6426L0.823242 46.839Z" fill="#FFD464"/>
<path d="M66.3037 47.3408V30.5188L33.5635 45.1969V62.1444L66.3037 47.3408Z" fill="#F99A64"/>
<path d="M0.823242 61.4629V46.8277L33.5635 61.6313V78.2024L2.58726 64.1965C1.51335 63.7109 0.823242 62.6415 0.823242 61.4629Z" fill="#FFDB7E"/>
<path d="M66.3037 61.463V47.3296L33.5635 61.945V78.2025L64.5397 64.1965C65.6136 63.711 66.3037 62.6416 66.3037 61.463Z" fill="#FFA471"/>
<path d="M32.5182 1.32899L0.823242 15.2247L33.3383 28.9841C33.5889 29.0901 33.8719 29.0895 34.122 28.9823L66.2202 15.2247L34.9403 1.3347C34.1696 0.992473 33.2905 0.990401 32.5182 1.32899Z" fill="#FC4D62"/>
<path fill-rule="evenodd" clip-rule="evenodd" d="M53.2843 42.7772L66.3164 37.375V40.8906L54.3669 45.575C53.5943 45.874 52.7256 45.49 52.4267 44.7174C52.1277 43.9448 52.5117 43.0761 53.2843 42.7772Z" fill="#FFD464"/>
<path fill-rule="evenodd" clip-rule="evenodd" d="M53.2843 26.2507L66.3164 20.8486V24.3642L54.3669 29.0486C53.5943 29.3475 52.7256 28.9636 52.4267 28.191C52.1277 27.4183 52.5117 26.5497 53.2843 26.2507Z" fill="#F7CB5A"/>
<path fill-rule="evenodd" clip-rule="evenodd" d="M53.2843 58.7433L66.3164 53.3411V56.8567L54.3669 61.5411C53.5943 61.8401 52.7256 61.4561 52.4267 60.6835C52.1277 59.9109 52.5117 59.0422 53.2843 58.7433Z" fill="#FFDB7E"/>
</svg>
