<svg width="94" height="49" viewBox="0 0 94 49" fill="none" xmlns="http://www.w3.org/2000/svg">
<path d="M86.88 7.12C82.2887 2.52872 76.1835 0 69.6903 0C63.1964 0 57.0919 2.52872 52.5006 7.12L47 12.6249V35.9951L64.1847 18.804C67.2204 15.7683 72.1602 15.7683 75.196 18.804C76.6669 20.2749 77.4766 22.2299 77.4766 24.3097H94C94 17.8165 91.4713 11.712 86.88 7.12Z" fill="#9671FF"/>
<path d="M29.8153 29.8153C26.7796 32.8511 21.8398 32.8511 18.804 29.8153C17.3331 28.3444 16.5234 26.3895 16.5234 24.3097H0C0 30.8029 2.52872 36.9081 7.12 41.4994C11.7113 46.0906 17.8165 48.6194 24.3097 48.6194C30.8036 48.6194 36.9081 46.0906 41.4994 41.4994L47 35.9951V12.6249L29.8153 29.8153Z" fill="#BD68FF"/>
<path d="M58.6812 24.3097L64.1847 29.8153C67.2204 32.8511 72.1602 32.8511 75.196 29.8153C76.6669 28.3444 77.4766 26.3895 77.4766 24.3097L85.7383 16.9659L94 24.3097C94 30.8029 91.4713 36.9081 86.88 41.4994C82.2887 46.0906 76.1835 48.6194 69.6903 48.6194C63.1964 48.6194 57.0919 46.0906 52.5006 41.4994L35.3232 24.3104C35.3246 24.3097 47 16.9659 47 16.9659L58.6812 24.3097Z" fill="#8D33FF"/>
<path d="M58.6761 24.3097L41.4994 7.12C36.9081 2.52872 30.8036 0 24.3097 0C17.8165 0 11.7113 2.52872 7.12 7.12C2.52872 11.712 0 17.8165 0 24.3097L8.26172 33.4894L16.5234 24.3097C16.5234 22.2299 17.3331 20.2749 18.804 18.804C21.8398 15.7683 26.7796 15.7683 29.8161 18.804L35.3203 24.3082C35.3188 24.3097 58.6761 24.3097 58.6761 24.3097Z" fill="#8D33FF"/>
</svg>
