<svg width="78" height="70" viewBox="0 0 78 70" fill="none" xmlns="http://www.w3.org/2000/svg">
<path d="M45.2595 41.3495L31.9723 41.3495L31.9723 55.8823L24.9135 55.8823L38.6159 70L52.3184 55.8824L45.2595 55.8824L45.2595 41.3495Z" fill="#BD68FF"/>
<path d="M77.2318 33.7889C77.2318 37.7952 75.5905 41.4154 72.9841 44.0221C70.3777 46.6286 66.7574 48.2699 62.7509 48.2699H14.481C6.46832 48.2699 0 41.8016 0 33.7889C0 29.7824 1.64133 26.1621 4.24775 23.5557C5.74412 22.0593 7.62664 20.8526 9.70225 20.1284C10.5228 8.83324 19.8872 0 31.3754 0C39.0985 0 45.8564 4.00625 49.6696 10.0883C50.7801 9.79864 51.9384 9.65398 53.0969 9.65398C59.6616 9.65398 65.1644 13.95 66.9504 19.9355C72.9358 21.7215 77.2318 27.2242 77.2318 33.7889Z" fill="#8D33FF"/>
<path d="M31.9723 48.2699H45.2595V33.737H52.3184L38.6159 19.6194L24.9135 33.737H31.9723V48.2699Z" fill="#5508B7"/>
</svg>
