<svg width="18" height="18" viewBox="0 0 18 18" fill="none" xmlns="http://www.w3.org/2000/svg">
<path d="M17.1685 0.199707H11.8984C11.4391 0.199707 11.0669 0.571962 11.0669 1.03125C11.0669 1.49054 11.4391 1.8628 11.8984 1.8628H15.161L7.18742 9.83639C6.86266 10.1612 6.86266 10.6876 7.18742 11.0124C7.34985 11.1747 7.56263 11.2559 7.77542 11.2559C7.9882 11.2559 8.20098 11.1747 8.36341 11.0124L16.337 3.03879V6.30149C16.337 6.76078 16.7093 7.13304 17.1685 7.13304C17.6278 7.13304 18.0001 6.76078 18.0001 6.30149V1.03134C18.0001 0.571962 17.6278 0.199707 17.1685 0.199707Z" fill="#636262"/>
<path d="M13.7667 7.13295C13.3074 7.13295 12.9352 7.50521 12.9352 7.9645V16.1373H1.66309V4.86524H10.3276C10.7869 4.86524 11.1592 4.49298 11.1592 4.03369C11.1592 3.5744 10.7869 3.20215 10.3276 3.20215H0.831545C0.372255 3.20215 0 3.5744 0 4.03369V16.9688C0 17.4281 0.372255 17.8004 0.831545 17.8004H13.7667C14.226 17.8004 14.5982 17.4281 14.5982 16.9688V7.9645C14.5982 7.50521 14.226 7.13295 13.7667 7.13295Z" fill="#636262"/>
</svg>
