<svg width="75" height="75" viewBox="0 0 75 75" fill="none" xmlns="http://www.w3.org/2000/svg">
<g clip-path="url(#clip0)">
<path d="M72.6718 47.4913L64.9646 41.1439C65.1343 39.9048 65.2173 38.6999 65.2173 37.4999C65.2173 36.2999 65.1341 35.095 64.9646 33.8558L72.6718 27.5084C73.5962 26.747 73.8343 25.4329 73.2359 24.3976L66.7141 13.1019C66.1173 12.0649 64.8587 11.6133 63.7386 12.0356L54.3718 15.5443C52.4446 14.0606 50.3364 12.8443 48.0784 11.9117L46.4332 2.04434C46.2375 0.864111 45.2168 0 44.0218 0H30.9784C29.7832 0 28.7626 0.864111 28.5669 2.04463L26.9218 11.912C24.6636 12.8446 22.5555 14.0609 20.6284 15.5446L11.2614 12.0359C10.1446 11.612 8.88428 12.0652 8.28589 13.1021L1.76411 24.3979C1.16572 25.4332 1.40376 26.7473 2.32822 27.5087L10.0354 33.8561C9.86572 35.0952 9.78266 36.3001 9.78266 37.5001C9.78266 38.7001 9.86587 39.905 10.0354 41.1442L2.32822 47.4916C1.40376 48.253 1.16572 49.5671 1.76411 50.6024L8.28589 61.8981C8.88428 62.9351 10.1462 63.3899 11.2614 62.9644L20.6282 59.4557C22.5554 60.9394 24.6636 62.1557 26.9216 63.0883L28.5668 72.9557C28.7619 74.1365 29.786 75.0003 30.9782 75.0003H44.0216C45.2159 75.0003 46.2368 74.1369 46.4331 72.9557L48.0782 63.0883C50.3364 62.1557 52.4445 60.9394 54.3718 59.4557L63.7386 62.9644C64.857 63.3883 66.1157 62.9351 66.7141 61.8981L73.2359 50.6024C73.8343 49.5668 73.5962 48.2527 72.6718 47.4913Z" fill="url(#paint0_linear)"/>
<path d="M73.2359 50.6024L66.7141 61.8981C66.1157 62.9351 64.857 63.3883 63.7386 62.9644L54.3718 59.4557C52.4445 60.9394 50.3364 62.1557 48.0782 63.0883L46.4331 72.9557C46.2368 74.1369 45.2159 75.0003 44.0216 75.0003L37.6028 75V0H44.0218C45.2168 0 46.2375 0.864111 46.4332 2.04434L48.0784 11.9117C50.3364 12.8443 52.4446 14.0606 54.3718 15.5443L63.7386 12.0356C64.8587 11.6133 66.1173 12.0649 66.7141 13.1019L73.2359 24.3976C73.8343 25.4329 73.5962 26.747 72.6718 27.5084L64.9646 33.8558C65.1341 35.095 65.2173 36.2999 65.2173 37.4999C65.2173 38.6999 65.1343 39.9048 64.9646 41.1439L72.6718 47.4913C73.5962 48.2527 73.8343 49.5668 73.2359 50.6024Z" fill="url(#paint1_linear)"/>
<path d="M45.75 47.2827V74.2843C45.3048 74.7294 44.6902 75 44.0218 75H30.9784C30.4028 75 29.868 74.7995 29.4457 74.4587V47.2827H45.75Z" fill="#CE8FFF"/>
<path d="M45.75 47.2827V74.2843C45.3048 74.7294 44.6902 75 44.0218 75H37.6011V47.2827H45.75Z" fill="#BD68FF"/>
<path d="M45.75 21.5495V32.6087L37.5979 37.5L29.4457 32.6087V21.5495C23.4549 24.6016 19.6633 30.6889 19.663 37.4996C19.6629 47.7132 27.9834 55.43 37.5885 55.4348C47.4819 55.4399 55.5325 47.3924 55.5325 37.5C55.5327 30.6891 51.7409 24.6016 45.75 21.5495Z" fill="#CE8FFF"/>
<path d="M55.5327 37.5C55.5327 30.6891 51.7408 24.6016 45.75 21.5495V32.6087L37.5979 37.5V55.4342C47.4874 55.4341 55.5327 47.3893 55.5327 37.5Z" fill="#BD68FF"/>
</g>
<defs>
<linearGradient id="paint0_linear" x1="37.5" y1="0" x2="37.5" y2="75.0003" gradientUnits="userSpaceOnUse">
<stop stop-color="#7309FA"/>
<stop offset="1" stop-color="#8D33FF"/>
</linearGradient>
<linearGradient id="paint1_linear" x1="37.5" y1="0" x2="37.5" y2="75.0003" gradientUnits="userSpaceOnUse">
<stop stop-color="#7309FA"/>
<stop offset="1" stop-color="#8D33FF"/>
</linearGradient>
<clipPath id="clip0">
<rect width="75" height="75" fill="white"/>
</clipPath>
</defs>
</svg>
