<svg width="75" height="75" viewBox="0 0 22 22" fill="none" xmlns="http://www.w3.org/2000/svg">
<path d="M21.7832 9.94726C21.7832 11.0513 21.3309 12.0489 20.6126 12.7673C19.8944 13.4856 18.8967 13.9379 17.7926 13.9379H4.4906C2.28251 13.9379 0.5 12.1554 0.5 9.94726C0.5 8.84316 0.95231 7.84551 1.67058 7.12724C2.08294 6.71488 2.60172 6.38233 3.1737 6.18276C3.39984 3.07009 5.98042 0.635864 9.1463 0.635864C11.2746 0.635864 13.1369 1.73989 14.1877 3.41594C14.4937 3.33613 14.813 3.29626 15.1322 3.29626C16.9413 3.29626 18.4577 4.48014 18.9499 6.12959C20.5993 6.62176 21.7832 8.13819 21.7832 9.94726Z" fill="url(#paint0_linear_5448_38)"/>
<g clip-path="url(#clip0_5448_38)">
<path d="M3.8344 7.56055C3.38951 7.56055 3.02344 7.9261 3.02344 8.37099V17.5684C3.02344 18.0133 3.38951 18.3789 3.8344 18.3789H18.4428C18.8877 18.3789 19.2532 18.0133 19.2532 17.5684V8.37099C19.2532 7.9261 18.8877 7.56055 18.4428 7.56055H3.8344Z" fill="url(#paint1_linear_5448_38)"/>
<path d="M10.9611 11.1424L3.29154 17.7558C3.17174 17.8587 3.16516 18.0419 3.27728 18.1531C3.42209 18.2954 3.622 18.3787 3.83465 18.3787H18.4431C18.6557 18.3787 18.8551 18.2954 18.9999 18.1531C19.1122 18.042 19.1058 17.8589 18.9862 17.7558L11.3145 11.1424C11.1724 11.0199 11.0819 11.0382 10.9611 11.1424Z" fill="url(#paint2_linear_5448_38)"/>
<path d="M3.83567 7.55945C3.62302 7.55945 3.42311 7.64275 3.2783 7.78502C3.2516 7.81122 3.23063 7.84269 3.21671 7.8774C3.20279 7.91212 3.19621 7.94934 3.1974 7.98673C3.19859 8.02411 3.20753 8.06083 3.22363 8.09458C3.23974 8.12834 3.26267 8.1584 3.29098 8.18285L10.9626 14.7973C11.0117 14.8396 11.0743 14.8628 11.1391 14.8628C11.2038 14.8628 11.2665 14.8396 11.3155 14.7973L18.9872 8.18285C19.0155 8.1584 19.0384 8.12834 19.0545 8.09458C19.0706 8.06083 19.0796 8.02411 19.0808 7.98673C19.0819 7.94934 19.0754 7.91212 19.0615 7.8774C19.0475 7.84269 19.0266 7.81122 18.9999 7.78502C18.8551 7.64275 18.6551 7.55945 18.4425 7.55945H3.83567Z" fill="url(#paint3_linear_5448_38)"/>
</g>
<defs>
<linearGradient id="paint0_linear_5448_38" x1="11.1416" y1="0.635864" x2="11.1416" y2="13.9379" gradientUnits="userSpaceOnUse">
<stop stop-color="#0167FF"/>
<stop offset="1" stop-color="#01A0FF"/>
</linearGradient>
<linearGradient id="paint1_linear_5448_38" x1="11.1383" y1="7.56055" x2="11.1383" y2="18.3789" gradientUnits="userSpaceOnUse">
<stop stop-color="#01A4FF"/>
<stop offset="1" stop-color="#62D0FF"/>
</linearGradient>
<linearGradient id="paint2_linear_5448_38" x1="11.1387" y1="11.0573" x2="11.1387" y2="18.3787" gradientUnits="userSpaceOnUse">
<stop stop-color="#2F9BFF"/>
<stop offset="1" stop-color="#21B3FF"/>
</linearGradient>
<linearGradient id="paint3_linear_5448_38" x1="11.1391" y1="7.55945" x2="11.1391" y2="14.8628" gradientUnits="userSpaceOnUse">
<stop stop-color="#01B3FF"/>
<stop offset="1" stop-color="#66D1FF"/>
</linearGradient>
<clipPath id="clip0_5448_38">
<rect width="17.3118" height="17.3118" fill="white" transform="translate(2.48438 4.31372)"/>
</clipPath>
</defs>
</svg>
