<svg width="73" height="75" viewBox="0 0 73 75" fill="none" xmlns="http://www.w3.org/2000/svg">
<path d="M71.2357 47.4911L63.5286 41.1438C63.6982 39.9047 63.7813 38.6997 63.7813 37.4997C63.7813 36.2997 63.6981 35.0949 63.5286 33.8556L71.2357 27.5083C72.1601 26.7469 72.3982 25.4328 71.7998 24.3975L65.278 13.1018C64.6813 12.0648 63.4227 11.6132 62.3025 12.0355L52.9358 15.5443C51.0086 14.0605 48.9004 12.8443 46.6424 11.9116L44.9972 2.04433C44.8015 0.864108 43.7808 0 42.5858 0H29.5424C28.3473 0 27.3267 0.864108 27.131 2.04462L25.4859 11.9119C23.2277 12.8446 21.1196 14.0608 19.1925 15.5446L9.82557 12.0358C8.70877 11.6119 7.44843 12.0651 6.85004 13.1021L0.328288 24.3978C-0.270098 25.4331 -0.0320621 26.7472 0.892397 27.5086L8.5995 33.8559C8.42987 35.095 8.34681 36.3 8.34681 37.5C8.34681 38.7 8.43001 39.9048 8.5995 41.1441L0.892397 47.4914C-0.0320621 48.2528 -0.270098 49.5669 0.328288 50.6022L6.85004 61.8979C7.44843 62.9349 8.71038 63.3897 9.82557 62.9642L19.1923 59.4554C21.1195 60.9392 23.2277 62.1554 25.4857 63.0881L27.1309 72.9554C27.326 74.1362 28.3501 75 29.5423 75H42.5856C43.7799 75 44.8008 74.1366 44.9971 72.9554L46.6422 63.0881C48.9004 62.1554 51.0085 60.9392 52.9358 59.4554L62.3025 62.9642C63.4209 63.3881 64.6797 62.9349 65.278 61.8979L71.7998 50.6022C72.3982 49.5666 72.1601 48.2525 71.2357 47.4911Z" fill="url(#paint0_linear)"/>
<path d="M71.7998 50.6022L65.278 61.8979C64.6797 62.9349 63.4209 63.3881 62.3025 62.9642L52.9358 59.4554C51.0085 60.9392 48.9004 62.1554 46.6422 63.0881L44.9971 72.9554C44.8008 74.1366 43.7799 75 42.5856 75L36.1668 74.9997V0H42.5858C43.7808 0 44.8015 0.864108 44.9972 2.04433L46.6424 11.9116C48.9004 12.8443 51.0086 14.0605 52.9358 15.5443L62.3025 12.0355C63.4227 11.6132 64.6813 12.0648 65.278 13.1018L71.7998 24.3975C72.3982 25.4328 72.1601 26.7469 71.2357 27.5083L63.5286 33.8556C63.6981 35.0949 63.7813 36.2997 63.7813 37.4997C63.7813 38.6997 63.6982 39.9047 63.5286 41.1438L71.2357 47.4911C72.1601 48.2525 72.3982 49.5666 71.7998 50.6022Z" fill="url(#paint1_linear)"/>
<path d="M54.3072 23.7412V48.1033C54.3072 49.4597 53.2054 50.5619 51.8497 50.5619H47.0991V55.3125C47.0991 56.6682 45.9969 57.77 44.6404 57.77H27.4876C26.1312 57.77 25.029 56.6682 25.029 55.3125V50.5619H20.2784C18.9227 50.5619 17.8209 49.4597 17.8209 48.1033V23.7412C17.8209 22.3855 18.9227 21.2837 20.2784 21.2837H51.8497C53.2054 21.2837 54.3072 22.3855 54.3072 23.7412Z" fill="#01B3FF"/>
<path d="M54.3072 23.7412V48.1033C54.3072 49.4597 53.2054 50.5619 51.8497 50.5619H47.0991V55.3125C47.0991 56.6682 45.9969 57.77 44.6404 57.77H36.064V21.2837H51.8497C53.2054 21.2837 54.3072 22.3855 54.3072 23.7412Z" fill="#01B3FF"/>
<path d="M28.9695 21.2837V28.8904C28.9695 29.7275 28.2893 30.4053 27.4492 30.4053C26.6099 30.4053 25.929 29.7275 25.929 28.8904V21.2837H28.9695Z" fill="#74E6FF"/>
<path d="M46.1991 21.2837V28.8904C46.1991 29.7275 45.5181 30.4053 44.6788 30.4053C43.8395 30.4053 43.1586 29.7275 43.1586 28.8904V21.2837H46.1991Z" fill="#74E6FF"/>
<path d="M35.0505 21.2837V28.8904C35.0505 29.7275 34.3695 30.4053 33.5302 30.4053C32.6913 30.4053 32.0099 29.7275 32.0099 28.8904V21.2837H35.0505Z" fill="#74E6FF"/>
<path d="M40.118 21.2837V28.8904C40.118 29.7275 39.4367 30.4053 38.5978 30.4053C37.7585 30.4053 37.0775 29.7275 37.0775 28.8904V21.2837H40.118Z" fill="#74E6FF"/>
<defs>
<linearGradient id="paint0_linear" x1="36.064" y1="0" x2="36.064" y2="75" gradientUnits="userSpaceOnUse">
<stop stop-color="#0066FF"/>
<stop offset="1" stop-color="#01A0FF"/>
</linearGradient>
<linearGradient id="paint1_linear" x1="36.064" y1="0" x2="36.064" y2="75" gradientUnits="userSpaceOnUse">
<stop stop-color="#0066FF"/>
<stop offset="1" stop-color="#01A0FF"/>
</linearGradient>
</defs>
</svg>
