<svg width="92" height="92" viewBox="0 0 92 92" fill="none" xmlns="http://www.w3.org/2000/svg">
<rect x="45.8922" width="64.9014" height="64.9014" rx="3.20501" transform="rotate(45 45.8922 0)" fill="#97EDFF"/>
<path d="M51.1065 71.6092C50.2471 70.7499 49.201 70.2045 48.1018 69.9214V63.8806C52.1684 63.5125 56.1335 61.7796 59.2398 58.6733C62.3462 55.5669 64.079 51.6018 64.4471 47.5353L70.488 47.5353C70.7711 48.6345 71.3164 49.6805 72.1758 50.5399C74.739 53.1031 78.9078 53.1031 81.4711 50.5399C84.0343 47.9766 84.0343 43.8078 81.4711 41.2446C78.9078 38.6813 74.739 38.6813 72.1758 41.2446C71.3164 42.1039 70.771 43.15 70.488 44.2492L64.4471 44.2492C64.079 40.1827 62.3462 36.2175 59.2398 33.1112C56.1335 30.0049 52.1684 28.272 48.1018 27.9039L48.1018 21.863C49.201 21.58 50.2471 21.0346 51.1065 20.1752C53.6697 17.612 53.6697 13.4432 51.1065 10.8799C48.5432 8.31669 44.3744 8.31669 41.8112 10.8799C39.2479 13.4432 39.2479 17.612 41.8112 20.1752C42.6705 21.0346 43.7166 21.58 44.8158 21.863L44.8158 27.9039C40.7492 28.272 36.7841 30.0049 33.6778 33.1112C30.5714 36.2175 28.8386 40.1827 28.4705 44.2492L22.4296 44.2492C22.1466 43.15 21.6012 42.1039 20.7418 41.2446C18.1786 38.6813 14.0098 38.6813 11.4465 41.2446C8.88326 43.8078 8.88326 47.9766 11.4465 50.5399C14.0098 53.1031 18.1786 53.1031 20.7418 50.5399C21.6012 49.6805 22.1466 48.6344 22.4296 47.5353L28.4705 47.5353C28.8386 51.6018 30.5714 55.5669 33.6778 58.6733C36.7841 61.7796 40.7492 63.5125 44.8158 63.8806V69.9214C43.7165 70.2046 42.6705 70.7499 41.8112 71.6092C39.2479 74.1725 39.2479 78.3413 41.8112 80.9045C44.3744 83.4678 48.5432 83.4678 51.1065 80.9045C53.6697 78.3413 53.6697 74.1725 51.1065 71.6092ZM47.6207 54.0256C46.7247 53.1296 46.2642 51.9707 46.2035 50.7952C45.0279 50.7345 43.8691 50.274 42.9731 49.378C41.051 47.4559 41.051 44.3286 42.9731 42.4065C44.8952 40.4844 48.0224 40.4844 49.9445 42.4065C51.8667 44.3286 51.8667 47.4559 49.9445 49.378C49.3035 50.019 49.3035 51.0607 49.9445 51.7018C50.5856 52.3429 51.6273 52.3429 52.2684 51.7018C55.4716 48.4986 55.4716 43.2859 52.2684 40.0827C49.0651 36.8794 43.8525 36.8794 40.6492 40.0827C37.446 43.2859 37.446 48.4986 40.6492 51.7018L38.3254 54.0256C33.8411 49.5413 33.8411 42.2431 38.3254 37.7589C42.8097 33.2746 50.1079 33.2746 54.5922 37.7589C59.0765 42.2431 59.0765 49.5413 54.5922 54.0256C52.6701 55.9477 49.5428 55.9477 47.6207 54.0256Z" fill="#2072FA"/>
<path d="M47.6207 54.0256C46.7247 53.1296 46.2642 51.9707 46.2035 50.7952C45.0279 50.7345 43.8691 50.274 42.9731 49.378C41.051 47.4559 41.051 44.3286 42.9731 42.4065C44.8952 40.4844 48.0224 40.4844 49.9445 42.4065C51.8667 44.3286 51.8667 47.4559 49.9445 49.378C49.3035 50.019 49.3035 51.0607 49.9445 51.7018C50.5856 52.3429 51.6273 52.3429 52.2684 51.7018C55.4716 48.4986 55.4716 43.2859 52.2684 40.0827C49.0651 36.8794 43.8525 36.8794 40.6492 40.0827C37.446 43.2859 37.446 48.4986 40.6492 51.7018L38.3254 54.0256C33.8411 49.5413 33.8411 42.2431 38.3254 37.7589C42.8097 33.2746 50.1079 33.2746 54.5922 37.7589C59.0765 42.2431 59.0765 49.5413 54.5922 54.0256C52.6701 55.9477 49.5428 55.9477 47.6207 54.0256Z" fill="#2072FA"/>
<rect x="76.3587" y="36.1322" width="13.8028" height="13.8028" rx="0.438185" transform="rotate(45 76.3587 36.1322)" fill="#2072FA"/>
<rect x="46.4588" y="66.032" width="13.8028" height="13.8028" rx="0.438185" transform="rotate(45 46.4588 66.032)" fill="#2072FA"/>
<rect x="16.5589" y="36.1322" width="13.8028" height="13.8028" rx="0.438185" transform="rotate(45 16.5589 36.1322)" fill="#2072FA"/>
<rect x="46.4588" y="6.2323" width="13.8028" height="13.8028" rx="0.438185" transform="rotate(45 46.4588 6.2323)" fill="#2072FA"/>
<circle cx="46.4588" cy="45.8922" r="10.8405" transform="rotate(45 46.4588 45.8922)" fill="#FFFCF5"/>
</svg>
