<svg width="288" height="214" viewBox="0 0 288 214" fill="none" xmlns="http://www.w3.org/2000/svg">
<path fill-rule="evenodd" clip-rule="evenodd" d="M219.689 167.229L202.765 170.648C199.184 171.371 195.74 169.085 195.016 165.503L192.393 152.52C186.91 152.136 181.588 151.161 176.371 149.326L169.011 160.412C167.01 163.425 162.891 164.258 159.878 162.257L145.473 152.772C142.46 150.771 141.628 146.652 143.628 143.638L150.988 132.552C147.361 128.439 144.307 123.93 141.914 119.008L128.841 121.649C125.349 122.354 121.816 120.086 121.092 116.504L117.673 99.5809C116.95 95.9993 119.326 92.537 122.818 91.8315L135.891 89.1906C136.185 83.7259 137.25 78.385 138.995 73.1862L127.909 65.8265C124.896 63.8258 124.064 59.7069 126.064 56.6932L135.657 42.3603C137.64 39.2571 141.759 38.425 144.79 40.5153L155.858 47.7854C159.972 44.1586 164.481 41.1042 169.403 38.712L166.78 25.7284C166.056 22.1467 168.325 18.613 171.906 17.8895L188.83 14.4708C192.411 13.7472 195.874 16.1233 196.597 19.7049L199.22 32.6885C204.685 32.9825 210.026 34.0471 215.225 35.7928L222.495 24.7249C224.585 21.6932 228.704 20.8611 231.717 22.8618L246.05 32.4546C249.154 34.4372 249.986 38.5562 247.895 41.5879L240.536 52.6738C244.252 56.7693 247.306 61.278 249.699 66.2001L262.682 63.5773C266.264 62.8538 269.798 65.1222 270.521 68.7039L273.94 85.6273C274.664 89.209 272.287 92.6712 268.706 93.3948L255.722 96.0176C255.428 101.482 254.364 106.823 252.528 112.04L263.596 119.31C266.718 121.382 267.55 125.501 265.459 128.533L255.956 142.848C253.955 145.862 249.836 146.694 246.733 144.711L235.737 137.333C231.641 141.05 227.115 144.014 222.192 146.407L224.833 159.48C225.557 163.061 223.27 166.506 219.689 167.229Z" fill="#730BF7"/>
<path fill-rule="evenodd" clip-rule="evenodd" d="M203.513 130.982C182.381 135.251 161.716 121.532 157.429 100.31C153.16 79.1784 166.879 58.5133 188.011 54.2444C209.232 49.9575 229.897 63.6765 234.166 84.8084C238.453 106.03 224.734 126.695 203.513 130.982Z" fill="white"/>
<path d="M275.874 136.687C275.874 150.953 270.03 163.843 260.749 173.125C251.468 182.406 238.578 188.25 224.312 188.25H52.4365C23.9058 188.25 0.874023 165.218 0.874023 136.687C0.874023 122.421 6.71831 109.531 15.999 100.25C21.3271 94.9219 28.0303 90.625 35.4209 88.0463C38.3428 47.8276 71.6865 16.375 112.593 16.375C140.092 16.375 164.155 30.6401 177.733 52.2963C181.687 51.2651 185.812 50.75 189.937 50.75C213.312 50.75 232.905 66.0469 239.265 87.3594C260.577 93.7187 275.874 113.312 275.874 136.687Z" fill="url(#paint0_linear_1934_78)"/>
<path fill-rule="evenodd" clip-rule="evenodd" d="M70.2725 86C70.2725 80.4772 74.7496 76 80.2725 76L200.272 76C205.795 76 210.272 80.4772 210.272 86L210.272 106C210.272 111.523 205.795 116 200.272 116L80.2725 116C74.7496 116 70.2725 111.523 70.2725 106L70.2725 86Z" fill="#BD68FF"/>
<path fill-rule="evenodd" clip-rule="evenodd" d="M70.2725 135C70.2725 129.477 74.7496 125 80.2725 125L200.272 125C205.795 125 210.272 129.477 210.272 135L210.272 155C210.272 160.523 205.795 165 200.272 165L80.2725 165C74.7496 165 70.2725 160.523 70.2725 155L70.2725 135Z" fill="#BD68FF"/>
<path fill-rule="evenodd" clip-rule="evenodd" d="M70.2725 184C70.2725 178.477 74.7496 174 80.2725 174L200.272 174C205.795 174 210.272 178.477 210.272 184L210.272 204C210.272 209.523 205.795 214 200.272 214L80.2725 214C74.7496 214 70.2725 209.523 70.2725 204L70.2725 184Z" fill="#BD68FF"/>
<path fill-rule="evenodd" clip-rule="evenodd" d="M137.872 76L200.272 76C205.795 76 210.272 80.4772 210.272 86L210.272 106C210.272 111.523 205.795 116 200.272 116L137.872 116L137.872 76Z" fill="#8F37FF"/>
<path fill-rule="evenodd" clip-rule="evenodd" d="M137.872 174L200.272 174C205.795 174 210.272 178.477 210.272 184L210.272 204C210.272 209.523 205.795 214 200.272 214L137.872 214L137.872 174Z" fill="#8F37FF"/>
<path fill-rule="evenodd" clip-rule="evenodd" d="M137.872 125L200.272 125C205.795 125 210.272 129.477 210.272 135L210.272 155C210.272 160.523 205.795 165 200.272 165L137.872 165L137.872 125Z" fill="#8F37FF"/>
<circle cx="190.126" cy="96" r="8.5" fill="#BD68FF"/>
<circle cx="190.126" cy="145" r="8.5" fill="#BD68FF"/>
<circle cx="190.126" cy="194" r="8.5" fill="#BD68FF"/>
<defs>
<linearGradient id="paint0_linear_1934_78" x1="138.374" y1="16.375" x2="138.374" y2="188.25" gradientUnits="userSpaceOnUse">
<stop stop-color="#5508B7"/>
<stop offset="1" stop-color="#760BFF"/>
</linearGradient>
</defs>
</svg>
