<svg width="289" height="267" viewBox="0 0 289 267" fill="none" xmlns="http://www.w3.org/2000/svg">
<path fill-rule="evenodd" clip-rule="evenodd" d="M220.158 166.627L203.235 170.046C199.653 170.769 196.209 168.483 195.485 164.901L192.863 151.918C187.38 151.534 182.057 150.559 176.84 148.724L169.48 159.81C167.48 162.823 163.361 163.656 160.347 161.655L145.943 152.17C142.929 150.169 142.097 146.05 144.098 143.036L151.457 131.95C147.831 127.837 144.776 123.328 142.384 118.406L129.311 121.047C125.819 121.752 122.285 119.484 121.561 115.902L118.143 98.9789C117.419 95.3972 119.795 91.9349 123.287 91.2295L136.361 88.5886C136.654 83.1238 137.719 77.783 139.465 72.5841L128.379 65.2245C125.365 63.2238 124.533 59.1048 126.534 56.0912L136.127 41.7583C138.109 38.6551 142.228 37.823 145.26 39.9132L156.328 47.1834C160.441 43.5565 164.95 40.5022 169.872 38.1099L167.249 25.1264C166.526 21.5447 168.794 18.011 172.376 17.2874L189.299 13.8687C192.881 13.1452 196.343 15.5212 197.067 19.1029L199.69 32.0865C205.154 32.3805 210.495 33.445 215.694 35.1907L222.964 24.1229C225.054 21.0911 229.173 20.2591 232.187 22.2597L246.52 31.8526C249.623 33.8352 250.455 37.9541 248.365 40.9859L241.005 52.0718C244.722 56.1672 247.776 60.676 250.168 65.5981L263.152 62.9753C266.733 62.2517 270.267 64.5201 270.991 68.1018L274.409 85.0252C275.133 88.6069 272.757 92.0692 269.175 92.7927L256.192 95.4155C255.898 100.88 254.833 106.221 252.998 111.438L264.066 118.708C267.187 120.78 268.019 124.899 265.929 127.931L256.426 142.246C254.425 145.26 250.306 146.092 247.203 144.109L236.206 136.731C232.111 140.448 227.584 143.412 222.662 145.805L225.303 158.878C226.026 162.459 223.74 165.904 220.158 166.627Z" fill="#FA7A64"/>
<path fill-rule="evenodd" clip-rule="evenodd" d="M203.982 130.38C182.85 134.648 162.185 120.929 157.898 99.708C153.629 78.5761 167.349 57.911 188.48 53.6422C209.702 49.3552 230.367 63.0742 234.636 84.2061C238.923 105.428 225.204 126.093 203.982 130.38Z" fill="white"/>
<path d="M275.064 136.786C275.064 151.051 269.22 163.942 259.939 173.224C250.659 182.504 237.768 188.349 223.502 188.349H51.627C23.0962 188.349 0.0644531 165.317 0.0644531 136.786C0.0644531 122.52 5.90874 109.629 15.1895 100.349C20.5176 95.0205 27.2207 90.7236 34.6113 88.145C37.5332 47.9262 70.877 16.4736 111.783 16.4736C139.283 16.4736 163.346 30.7387 176.923 52.395C180.877 51.3637 185.002 50.8486 189.127 50.8486C212.502 50.8486 232.096 66.1455 238.455 87.458C259.768 93.8174 275.064 113.411 275.064 136.786Z" fill="url(#paint0_linear_1934_79)"/>
<rect x="181.418" y="145.401" width="79.1292" height="79.1292" rx="10" fill="#FFD464"/>
<path d="M181.418 155.401C181.418 149.879 185.895 145.401 191.418 145.401H250.547C256.07 145.401 260.547 149.879 260.547 155.401V188.604H181.418V155.401Z" fill="#F99A64"/>
<rect x="68.7949" y="65.1055" width="98.3613" height="98.3613" rx="10" fill="#F7CB5A"/>
<path d="M68.7949 75.1055C68.7949 69.5826 73.2721 65.1055 78.7949 65.1055H157.156C162.679 65.1055 167.156 69.5826 167.156 75.1055V118.809H68.7949V75.1055Z" fill="#F99A64"/>
<rect x="111.766" y="211.222" width="55.3906" height="55.3906" rx="10" fill="#FFDB7E"/>
<path d="M111.766 221.222C111.766 215.699 116.243 211.222 121.766 211.222H157.156C162.679 211.222 167.156 215.699 167.156 221.222V241.464H111.766V221.222Z" fill="#F99A64"/>
<defs>
<linearGradient id="paint0_linear_1934_79" x1="137.564" y1="16.4736" x2="137.564" y2="188.349" gradientUnits="userSpaceOnUse">
<stop stop-color="#FC4D62"/>
<stop offset="1" stop-color="#F97C64"/>
</linearGradient>
</defs>
</svg>
