<svg width="243" height="209" viewBox="0 0 243 209" fill="none" xmlns="http://www.w3.org/2000/svg">
<path fill-rule="evenodd" clip-rule="evenodd" d="M134.005 190.392H112.917C108.454 190.392 104.884 186.821 104.884 182.358V166.18C98.4122 164.394 92.2756 161.94 86.4736 158.481L74.9813 169.973C71.8572 173.097 66.7247 173.097 63.6005 169.973L48.6494 155.134C45.5252 152.009 45.5252 146.877 48.6494 143.753L60.1417 132.261C56.7944 126.459 54.2282 120.322 52.5545 113.85H36.2644C31.913 113.85 28.231 110.28 28.231 105.817V84.7291C28.231 80.2661 31.913 76.6957 36.2644 76.6957H52.5545C54.2282 70.2243 56.7944 64.0876 60.1417 58.2856L48.6494 46.7933C45.5252 43.6692 45.5252 38.5367 48.6494 35.4126L63.6005 20.573C66.7247 17.3372 71.8572 17.3372 74.9813 20.573L86.4736 31.9537C92.2756 28.6064 98.4122 26.0402 104.884 24.3665V8.18802C104.884 3.72498 108.454 0.0429688 112.917 0.0429688H134.005C138.468 0.0429688 142.038 3.72498 142.038 8.18802V24.3665C148.51 26.0402 154.647 28.6064 160.448 31.9537L171.829 20.4614C175.065 17.3372 180.197 17.3372 183.322 20.4614L198.161 35.4126C201.397 38.5367 201.397 43.6692 198.161 46.7933L186.669 58.2856C190.128 64.0876 192.694 70.2243 194.368 76.6957H210.546C215.009 76.6957 218.691 80.2661 218.691 84.7291V105.817C218.691 110.28 215.009 113.85 210.546 113.85H194.368C192.694 120.322 190.128 126.459 186.669 132.261L198.161 143.641C201.397 146.877 201.397 152.009 198.161 155.134L183.322 169.973C180.197 173.097 175.065 173.097 171.829 169.973L160.448 158.481C154.647 161.94 148.51 164.394 142.038 166.068V182.358C142.038 186.821 138.468 190.392 134.005 190.392Z" fill="url(#paint0_linear_1934_77)"/>
<path fill-rule="evenodd" clip-rule="evenodd" d="M123.405 143.083C97.0734 143.083 75.6508 121.66 75.6508 95.2169C75.6508 68.885 97.0734 47.4624 123.405 47.4624C149.849 47.4624 171.271 68.885 171.271 95.2169C171.271 121.66 149.849 143.083 123.405 143.083Z" fill="url(#paint1_linear_1934_77)"/>
<path d="M63.9277 155.185H179.195V208.185H63.9277V155.185Z" fill="url(#paint2_linear_1934_77)"/>
<path d="M0.478516 78.2442C0.478516 67.7098 9.01839 59.1699 19.5529 59.1699H72.1313V208.185H19.5528C9.01838 208.185 0.478516 199.645 0.478516 189.111V78.2442Z" fill="#46009E"/>
<rect x="85.7363" y="59.1699" width="71.6528" height="149.015" fill="#5508B7"/>
<path d="M170.996 59.1699H223.575C234.109 59.1699 242.649 67.7098 242.649 78.2443V189.111C242.649 199.645 234.109 208.185 223.575 208.185H170.996V59.1699Z" fill="#7913FB"/>
<path d="M0.478516 147.147H72.1313V208.185H19.5528C9.01838 208.185 0.478516 199.645 0.478516 189.111V147.147Z" fill="#5508B7"/>
<rect x="85.7363" y="147.147" width="71.6528" height="61.0379" fill="#640BD7"/>
<path d="M170.996 147.147H242.649V189.111C242.649 199.645 234.109 208.185 223.575 208.185H170.996V147.147Z" fill="#8C32FF"/>
<circle cx="36.3055" cy="95.2173" r="14.8301" fill="#8F37FF"/>
<circle cx="121.561" cy="95.2173" r="14.8301" fill="#8F37FF"/>
<circle cx="202.348" cy="95.2173" r="14.8301" fill="#8F37FF"/>
<defs>
<linearGradient id="paint0_linear_1934_77" x1="123.461" y1="0.0429687" x2="123.461" y2="208.185" gradientUnits="userSpaceOnUse">
<stop stop-color="#7102FF"/>
<stop offset="1" stop-color="#44009A"/>
</linearGradient>
<linearGradient id="paint1_linear_1934_77" x1="123.461" y1="0.0429687" x2="123.461" y2="208.185" gradientUnits="userSpaceOnUse">
<stop stop-color="#7102FF"/>
<stop offset="1" stop-color="#44009A"/>
</linearGradient>
<linearGradient id="paint2_linear_1934_77" x1="123.461" y1="0.0429687" x2="123.461" y2="208.185" gradientUnits="userSpaceOnUse">
<stop stop-color="#7102FF"/>
<stop offset="1" stop-color="#44009A"/>
</linearGradient>
</defs>
</svg>
