<svg width="64" height="64" viewBox="0 0 64 64" fill="none" xmlns="http://www.w3.org/2000/svg">
<path d="M64 32V50.2857C64 59.7608 47.9269 64 32 64C16.0731 64 0 59.7608 0 50.2857V32C0 41.475 64 41.475 64 32Z" fill="#F97C64"/>
<path d="M64 50.2857V32C64 36.7375 48 39.1064 32 39.1064V64C47.9269 64 64 59.7608 64 50.2857Z" fill="#FA566A"/>
<path d="M64 13.7143V32C64 41.475 47.9269 45.7143 32 45.7143C16.0731 45.7143 0 41.475 0 32V13.7143C0 23.1893 64 23.1893 64 13.7143Z" fill="#F7BE5A"/>
<path d="M64 32V13.7143C64 18.4518 48 20.8207 32 20.8207V45.7143C47.9269 45.7143 64 41.475 64 32Z" fill="#F97C64"/>
<path d="M63.9939 13.4705C63.7227 4.1661 47.7897 0 32 0C16.2103 0 0.27733 4.1661 0.00609189 13.4705C0.00304427 13.5497 0 13.632 0 13.7143C0 23.1893 16.0731 27.4286 32 27.4286C47.9269 27.4286 64 23.1893 64 13.7143C64 13.632 63.997 13.5497 63.9939 13.4705Z" fill="#F97C64"/>
<path d="M64 13.7143C64 13.632 63.997 13.5497 63.9939 13.4705C63.7227 4.1661 47.7897 0 32 0V27.4286C47.9269 27.4286 64 23.1893 64 13.7143Z" fill="#FA566A"/>
</svg>
