<svg width="69" height="69" viewBox="0 0 69 69" fill="none" xmlns="http://www.w3.org/2000/svg">
<g clip-path="url(#clip0_4259_8)">
<path d="M15.7332 15.9684L10.0941 10.3303C3.93635 16.4864 0.128906 24.9923 0.128906 34.3876L4.11604 38.3747L8.10317 34.3876C8.10317 27.2067 11.0244 20.6943 15.7411 15.9762L15.7332 15.9684Z" fill="#0084FF"/>
<path d="M52.5713 15.9684L58.2105 10.3303C64.3682 16.4864 68.1756 24.9923 68.1756 34.3876L64.1885 38.3747L60.2014 34.3876C60.2014 27.2067 57.2801 20.6943 52.5635 15.9762L52.5713 15.9684Z" fill="#0066FF"/>
<path d="M34.1522 8.33834C26.9701 8.33834 20.4578 11.2596 15.7409 15.9762L15.733 15.9684C14.1755 17.5259 11.6515 17.5259 10.0939 15.9684C9.72311 15.5986 9.42905 15.1592 9.22859 14.6755C9.02813 14.1917 8.92523 13.6731 8.92578 13.1495C8.92578 12.1288 9.31519 11.1081 10.094 10.3303C16.2511 4.17312 24.757 0.364075 34.1522 0.364075L38.1394 4.35121L34.1522 8.33834Z" fill="#003FE2"/>
<path d="M34.1519 8.33834C41.334 8.33834 47.8463 11.2596 52.5632 15.9762L52.5711 15.9684C54.1286 17.5259 56.6526 17.5259 58.2102 15.9684C58.581 15.5986 58.8751 15.1592 59.0755 14.6755C59.276 14.1917 59.3789 13.6731 59.3783 13.1495C59.3783 12.1288 58.9889 11.1081 58.2101 10.3303C52.053 4.17312 43.5471 0.364075 34.1519 0.364075V8.33834Z" fill="#003FE2"/>
<path d="M0.128906 62.3069C0.128906 63.4079 1.02146 64.3004 2.12247 64.3004H20.0646L8.10317 34.3969H0.128906V62.3069Z" fill="#74E6FF"/>
<path d="M68.1758 62.3069C68.1758 63.4079 67.2832 64.3004 66.1822 64.3004H48.2401L60.2015 34.3969H68.1758V62.3069Z" fill="#74E6FF"/>
<path d="M8.10303 34.3969V67.623C8.10303 67.99 8.40054 68.2875 8.76755 68.2875H16.0773L22.058 51.3422L16.0773 34.3969H8.10303Z" fill="#0084FF"/>
<path d="M18.0707 34.3969H16.0771V68.2875H18.0707C22.468 68.2875 26.045 64.71 26.045 60.3133V42.3712C26.045 37.9739 22.468 34.3969 18.0707 34.3969Z" fill="#003FE2"/>
<path d="M60.2015 34.3969V67.623C60.2015 67.99 59.904 68.2875 59.537 68.2875H52.2273L46.2466 51.3422L52.2273 34.3969H60.2015Z" fill="#0066FF"/>
<path d="M50.2335 34.3969H52.2271V68.2875H50.2335C45.8363 68.2875 42.2593 64.71 42.2593 60.3133V42.3712C42.2593 37.9739 45.8363 34.3969 50.2335 34.3969Z" fill="#003FE2"/>
</g>
<defs>
<clipPath id="clip0_4259_8">
<rect width="68.0471" height="68.0471" fill="white" transform="translate(0.128418 0.364075)"/>
</clipPath>
</defs>
</svg>
