<svg width="67" height="76" viewBox="0 0 124 141" fill="none" xmlns="http://www.w3.org/2000/svg">
<path d="M66.8647 66.8245C67.261 68.5898 68.2337 70.175 68.558 72.0124C68.9903 74.4622 68.5219 76.6599 67.4051 78.7134C66.9367 79.6141 66.7566 80.2626 67.261 81.1272C69.0623 84.1535 70.8637 87.2158 72.665 90.2421C74.8987 93.9889 77.0243 97.8078 79.3661 101.483C82.3203 106.094 84.9143 110.958 87.9045 115.533C88.6971 116.758 89.6338 117.947 90.1382 119.352C88.1927 119.604 86.4274 120.541 84.518 120.937C83.3651 121.189 82.3203 121.586 83.0409 123.135C81.888 121.982 81.5277 120.325 80.627 119.028C79.3661 117.19 78.2132 115.245 77.0603 113.335C76.7361 112.831 76.3398 112.651 75.7273 112.651C71.0078 112.687 66.2883 112.687 61.5687 112.651C60.7041 112.651 60.668 112.975 60.668 113.696C60.668 117.659 60.668 121.622 60.632 125.585C60.2717 125.26 60.4158 124.828 60.4158 124.432C60.3438 122.486 60.3078 122.414 58.3263 122.378C56.4168 122.378 54.4714 122.27 52.5619 122.63C52.5619 119.712 52.4899 116.794 52.5259 113.84C52.5259 112.939 52.3818 112.615 51.3731 112.615C46.4734 112.651 41.5737 112.615 36.674 112.615C36.2417 112.615 35.9895 112.651 35.7013 113.155C33.8279 116.182 32.1346 119.316 30.3693 122.378C30.1891 122.666 29.8649 122.883 29.6487 123.135C27.9555 123.171 26.4784 122.45 24.8932 121.982C23.7763 121.658 22.6955 120.973 21.4346 121.478C22.5154 119.64 23.5962 117.803 24.713 116.001C25.974 113.948 27.2349 111.894 28.4959 109.805C30.1531 107.067 31.7023 104.293 33.3955 101.555C35.305 98.5283 36.9622 95.3219 38.7636 92.2236C40.4208 89.4135 42.1501 86.6394 43.8074 83.8293C44.4559 82.7485 44.9242 81.5595 45.5727 80.4787C45.8969 79.9743 45.5006 79.7222 45.3565 79.3979C44.636 78.1009 44.2037 76.7319 44.0956 75.2548C43.6633 73.8858 43.9155 72.5168 44.1316 71.1477C45.2485 64.5548 52.1296 59.9433 58.6865 61.3123C62.1812 62.213 64.7751 64.1225 66.8647 66.8245ZM40.8171 104.833C44.4919 104.833 47.9144 104.797 51.301 104.869C52.2737 104.905 52.5619 104.653 52.5619 103.644C52.4899 97.9879 52.5259 92.3316 52.5259 86.6754C52.5259 86.3151 52.5259 85.9188 52.5259 85.5586C52.4178 85.5225 52.2737 85.4865 52.1657 85.4505C48.1306 91.6471 44.6 98.2401 40.8171 104.833ZM60.9923 86.2431C60.8842 86.2791 60.7761 86.3151 60.7041 86.3512C60.7041 92.2596 60.7041 98.2041 60.7041 104.112C60.7041 104.905 61.1364 104.833 61.6408 104.833C64.8832 104.833 68.1256 104.833 71.3321 104.833C71.5842 104.833 71.9085 104.941 71.9805 104.653C68.2698 98.4562 64.631 92.3677 60.9923 86.2431ZM56.1646 78.3531C59.0108 78.3531 61.1724 76.2996 61.2084 73.5615C61.2445 70.5713 58.4344 68.6979 56.597 68.6619C54.0391 68.5898 51.5532 71.0397 51.4811 73.3814C51.373 75.507 53.5347 78.7134 56.1646 78.3531Z" fill="#103675"/>
<path d="M74.1068 18.0799C74.8273 14.4772 76.0883 11.0546 79.3668 9.07316C81.4203 7.84824 83.2577 6.33511 85.4914 5.36238C87.7611 4.35362 89.6705 2.55226 91.9762 1.5435C93.6335 0.822963 95.2547 0.102417 97.1281 0.030363C100.407 -0.113745 103.613 0.210507 106.459 1.97583C108.152 3.02062 109.702 4.24553 111.287 5.43442C113.448 7.05564 114.961 9.14521 116.475 11.2348C118.132 13.5045 119.429 16.0624 120.546 18.6564C121.374 20.6378 122.131 22.6554 122.491 24.781C123.176 28.5638 123.572 32.3106 122.815 36.2376C121.951 40.5248 120.005 43.9474 116.799 46.7575C115.61 47.8023 114.169 48.4868 112.836 49.2073C110.314 50.5403 107.936 52.0895 105.45 53.4585C101.379 55.6922 97.1642 55.8003 92.913 53.9269C92.6247 53.8188 92.3725 53.6026 92.0483 53.7827C91.9402 53.5306 91.7241 53.4225 91.4719 53.2784C88.5897 51.8373 86.0318 49.9279 83.7621 47.6581C80.8799 44.812 78.8624 41.3894 76.8809 37.9308C75.8001 34.0759 74.0348 30.4012 73.7465 26.2941C73.5664 23.484 73.4943 20.782 74.1068 18.0799ZM86.392 32.1665C85.1671 29.4645 84.3025 26.6544 83.7981 23.7722C83.2937 20.9981 82.6092 18.224 83.2577 15.3779C82.321 16.4227 81.8166 17.6476 81.4924 18.9446C80.8799 21.3224 80.8439 23.7722 81.1681 26.222C81.4924 28.816 82.1769 31.2298 83.3297 33.5716C84.1223 34.7605 84.3385 36.2015 85.1311 37.4625C87.6169 41.4255 90.7153 44.7399 95.0385 46.6854C96.6597 47.406 98.353 48.0184 100.443 47.478C98.0648 46.2171 96.1194 44.812 94.354 43.1548C90.9315 39.9844 88.4816 36.2015 86.392 32.1665ZM98.2449 7.59605C97.5965 7.77618 96.912 7.56002 96.1914 7.81221C93.2732 8.82097 91.9762 11.1627 91.2197 13.8287C90.5712 16.0624 90.6072 18.3681 90.8594 20.7099C91.1836 23.7002 92.1203 26.4022 93.3453 29.1042C94.0298 30.6173 95.1106 31.8783 95.9392 33.2473C98.2449 36.9581 101.379 39.7322 105.27 41.5335C108.729 43.1548 113.124 41.2453 114.962 37.8228C115.934 35.9854 116.078 34.0399 116.042 31.9864C116.006 28.816 115.466 25.7177 114.493 22.7995C113.016 18.2961 110.134 14.5853 106.639 11.4149C104.334 9.28932 101.704 7.56002 98.2449 7.59605Z" fill="#103675"/>
<path d="M74.1069 18.08C73.4584 20.746 73.5665 23.448 73.7467 26.186C73.9988 30.2931 75.8002 33.9679 76.881 37.8228C76.4127 38.0029 75.9443 38.147 75.512 38.3632C70.252 41.4255 64.9921 44.4878 59.7682 47.5861C51.9863 52.1616 44.1684 56.701 36.3866 61.3485C34.9095 62.2491 33.2522 62.8616 31.9913 64.1226C31.0186 62.8616 30.5502 61.3485 29.9738 59.9074C28.893 57.2414 28.5327 54.4313 28.0283 51.6212C28.2805 50.6484 28.4246 49.6757 28.5687 48.6669C28.8569 46.5774 29.3613 44.5959 31.4509 43.5151C31.559 43.443 31.667 43.3349 31.7751 43.2629C31.8472 43.2268 31.9192 43.1908 31.9913 43.2269C32.2435 43.2269 32.4596 43.1908 32.5677 42.9386L32.5317 42.9747C32.964 43.0107 33.2522 42.8306 33.3603 42.4343C33.6125 42.4343 33.8287 42.3982 33.9007 42.11L33.8647 42.146C34.4772 42.146 35.1257 42.1821 35.2337 41.3174V41.3534C35.8462 41.3174 36.3866 41.1373 36.6028 40.5248L36.5667 40.5608C36.9991 40.5969 37.3954 40.6329 37.3954 40.0204C38.0799 40.0925 38.5122 39.8043 38.7644 39.1918L38.7284 39.2278C39.1607 39.2639 39.557 39.2639 39.557 38.6874C39.8092 38.6874 40.0253 38.6514 40.0974 38.3992L40.0613 38.4352C40.7098 38.3632 41.4664 38.4713 41.5745 37.5346L41.6105 37.4985C42.295 37.8228 42.5472 37.2824 42.7994 36.814H42.7634C43.1597 36.8501 43.592 36.8501 43.592 36.2736C43.8802 36.2376 44.3126 36.4177 44.3126 35.8773V35.8053C45.0331 36.1295 45.2493 35.5891 45.5014 35.1568L45.4654 35.1928C45.8977 35.1208 46.3661 35.1568 46.4381 34.5443L46.4742 34.4723C47.1227 34.7245 47.519 34.5083 47.6631 33.8238C47.7712 33.7517 47.8432 33.6797 47.9513 33.6076C48.0233 33.5716 48.0954 33.5356 48.2035 33.5356C48.5998 33.5356 48.9961 33.5716 49.0321 32.9952C49.1762 32.8511 49.6446 33.3194 49.5365 32.7069C51.4099 31.2298 53.5355 30.1851 55.589 28.9601C60.8129 25.7898 66.0729 22.6554 71.3329 19.521C72.1975 18.9806 72.9901 18.188 74.1069 18.08Z" fill="#0B8BFF"/>
<path d="M31.9912 64.1585C33.2522 62.8976 34.9094 62.2491 36.3865 61.3844C44.1684 56.773 51.9502 52.1975 59.7681 47.6221C65.028 44.5598 70.2519 41.4615 75.5119 38.3992C75.9442 38.147 76.4126 38.0389 76.8809 37.8588C78.8624 41.3174 80.916 44.7399 83.7621 47.5861C86.0318 49.8558 88.5897 51.7292 91.4719 53.2063C91.7241 53.3504 91.9403 53.4585 92.0483 53.7107C89.6705 54.8275 87.4729 56.3046 85.0591 57.4575C78.9345 60.3757 72.99 63.6541 66.9735 66.7885C66.9375 66.8245 66.9014 66.8245 66.8294 66.8245C64.7038 64.1225 62.1098 62.2131 58.6873 61.4925C52.1303 60.0875 45.2492 64.6989 44.1323 71.3279C43.9162 72.6969 43.664 74.066 44.0963 75.435C43.2316 75.5431 42.5111 75.0027 41.7185 74.8586C40.8899 73.7778 39.6289 73.2734 38.5842 72.4808C35.738 70.1751 33.5043 67.473 31.9912 64.1585Z" fill="#026BEA"/>
<path d="M6.08691 64.807C7.38389 63.438 9.14921 62.7535 10.6984 61.7808C15.2378 58.9706 19.8853 56.2686 24.4968 53.5305C24.5688 53.4945 24.6769 53.4945 24.7489 53.4585C25.2893 55.0077 24.893 56.6649 25.2893 58.2501C27.1267 66.176 30.8375 72.6969 38.5473 76.2997C37.3224 77.3805 35.8092 77.9209 34.3682 78.5694C32.3146 79.47 30.5133 80.803 28.4597 81.7037C25.1452 83.1448 22.191 85.3064 18.8405 86.7475C18.4802 86.4953 18.12 86.2071 17.7597 85.9909C10.194 81.5596 6.48321 74.9306 6.37513 66.2121C6.3391 65.7437 6.55527 65.2033 6.08691 64.807Z" fill="#026BEA"/>
<path d="M6.08729 64.807C6.55564 65.2033 6.33948 65.7437 6.33948 66.1761C6.44756 74.8946 10.1583 81.5236 17.724 85.9549C18.0843 86.1711 18.4446 86.4593 18.8048 86.7115C17.3998 87.432 16.1028 88.4768 14.6257 88.8371C12.6082 89.3054 10.5186 88.8371 8.71726 87.6122C4.21387 84.5859 1.69198 80.1906 0.50309 75.0747C0.0707648 73.2374 -0.433605 71.1118 0.647207 69.0942C1.58391 67.3649 3.025 66.2841 4.68224 65.4915C5.15059 65.2394 5.51085 64.771 6.08729 64.807Z" fill="#103675"/>
<path d="M83.0775 123.171C82.357 121.622 83.3658 121.225 84.5546 120.973C86.4641 120.577 88.1934 119.64 90.1749 119.388H90.1388C90.2469 119.496 90.355 119.604 90.4271 119.676L90.3911 119.64C90.355 119.892 90.391 120.145 90.6792 120.217L90.6432 120.181C90.6072 120.397 90.6432 120.613 90.8594 120.757C92.985 123.243 94.39 126.197 95.9392 129.043C96.9119 130.809 98.2449 132.358 99.1096 134.195C99.8662 135.744 99.614 138.086 98.3891 138.987C96.8039 140.176 95.3988 140.68 93.5254 139.491C92.9129 139.095 92.4086 138.518 92.0123 137.906C89.3823 133.763 86.7523 129.62 84.1584 125.441C83.7621 124.756 83.4378 123.927 83.0775 123.171Z" fill="#4103ED"/>
<path d="M21.435 121.55C22.6959 121.045 23.7407 121.694 24.8936 122.054C26.4427 122.522 27.9559 123.243 29.6491 123.207C28.8205 125.405 27.4515 127.314 26.2986 129.332C24.6414 132.178 22.9481 135.024 21.2188 137.834C20.174 139.527 18.2646 140.32 16.5353 139.887C14.2295 139.347 12.7885 136.285 14.0134 134.123C16.2471 130.16 18.5888 126.269 20.8585 122.342C20.9306 122.234 21.0747 122.162 21.1467 122.09C21.471 122.018 21.507 121.802 21.435 121.55Z" fill="#4103ED"/>
<path d="M52.5625 122.666C54.4719 122.306 56.3814 122.378 58.3268 122.414C60.2723 122.414 60.3443 122.486 60.4164 124.468C60.4164 124.864 60.3083 125.296 60.6326 125.621C60.6326 129.187 60.7046 132.718 60.6686 136.285C60.6326 138.158 58.2548 140.32 56.4534 140.284C54.4719 140.248 52.5625 138.23 52.5625 136.177C52.5625 132.394 52.5985 128.611 52.5985 124.864C52.9588 124.432 52.9588 123.999 52.5985 123.603C52.5625 123.207 52.5625 122.955 52.5625 122.666Z" fill="#4103ED"/>
<path d="M38.5113 76.2636C30.8375 72.6609 27.0907 66.14 25.2533 58.214C24.893 56.6288 25.2893 54.9716 24.7129 53.4224C25.6496 52.5938 27.0186 52.4497 27.9553 51.6571C28.4597 54.4672 28.82 57.2773 29.9008 59.9433C30.4772 61.3844 30.9456 62.8975 31.9183 64.1585C33.4314 67.473 35.7012 70.175 38.5473 72.4447C39.5921 73.2733 40.853 73.7417 41.6816 74.8225C40.6729 75.2909 39.5921 75.7952 38.5113 76.2636Z" fill="#103675"/>
<path d="M41.6098 37.4625C41.4657 38.3992 40.7452 38.3272 40.0967 38.3632C40.457 37.8228 41.0334 37.6427 41.6098 37.4625Z" fill="#026BEA"/>
<path d="M35.2333 41.3174C35.1252 42.182 34.5127 42.146 33.8643 42.146C34.1885 41.6416 34.7289 41.4975 35.2333 41.3174Z" fill="#026BEA"/>
<path d="M47.6625 33.7877C47.5184 34.4722 47.1581 34.6884 46.4736 34.4362C46.7979 34.0399 47.1942 33.8598 47.6625 33.7877Z" fill="#026BEA"/>
<path d="M38.7636 39.1558C38.5114 39.7682 38.079 40.0925 37.3945 39.9844C37.6827 39.48 38.2231 39.2999 38.7636 39.1558Z" fill="#026BEA"/>
<path d="M36.6024 40.4888C36.3502 41.1373 35.8459 41.2814 35.2334 41.3174C35.5576 40.849 36.062 40.6329 36.6024 40.4888Z" fill="#026BEA"/>
<path d="M42.7983 36.7419C42.5461 37.2103 42.3299 37.7147 41.6094 37.4265C41.8976 36.9581 42.3659 36.85 42.7983 36.7419Z" fill="#026BEA"/>
<path d="M45.5004 35.1207C45.2482 35.5891 45.0321 36.1295 44.3115 35.7692C44.6358 35.3729 45.0681 35.2288 45.5004 35.1207Z" fill="#026BEA"/>
<path d="M37.395 39.9844C37.395 40.5968 36.9627 40.5608 36.5664 40.5248C36.7465 40.2005 36.9987 39.9844 37.395 39.9844Z" fill="#026BEA"/>
<path d="M39.5562 38.6154C39.5562 39.1918 39.1599 39.1918 38.7275 39.1558C38.9077 38.8315 39.1599 38.6514 39.5562 38.6154Z" fill="#026BEA"/>
<path d="M43.6274 36.2015C43.6274 36.778 43.2312 36.778 42.7988 36.7419C42.979 36.4177 43.2311 36.2015 43.6274 36.2015Z" fill="#026BEA"/>
<path d="M46.4737 34.5082C46.4017 35.1206 45.8973 35.0846 45.501 35.1567C45.6811 34.7243 46.0774 34.5802 46.4737 34.5082Z" fill="#026BEA"/>
<path d="M49.0317 32.9951C48.9957 33.5715 48.5994 33.5355 48.2031 33.5355C48.3833 33.1752 48.5994 32.9591 49.0317 32.9951Z" fill="#026BEA"/>
<path d="M52.5625 123.495C52.9228 123.927 52.9228 124.36 52.5625 124.756C52.5625 124.36 52.5625 123.927 52.5625 123.495Z" fill="#103675"/>
<path d="M33.3599 42.3982C33.2158 42.7945 32.9275 42.9746 32.5312 42.9386C32.7114 42.6504 32.9636 42.3982 33.3599 42.3982Z" fill="#026BEA"/>
<path d="M44.3123 35.8413C44.3123 36.3817 43.88 36.2016 43.5918 36.2376C43.7359 35.9134 44.0601 35.9134 44.3123 35.8413Z" fill="#026BEA"/>
<path d="M49.5356 32.7069C49.6437 33.2833 49.1754 32.851 49.0312 32.9951C49.2114 32.887 49.3555 32.779 49.5356 32.7069Z" fill="#026BEA"/>
<path d="M33.9008 42.11C33.8287 42.3982 33.5765 42.4342 33.3604 42.4342C33.4684 42.182 33.6846 42.146 33.9008 42.11Z" fill="#026BEA"/>
<path d="M32.5315 42.9386C32.4234 43.2268 32.2073 43.2628 31.9551 43.2268C32.0632 42.9746 32.3154 42.9746 32.5315 42.9386Z" fill="#026BEA"/>
<path d="M40.097 38.3632C39.989 38.6153 39.7728 38.6874 39.5566 38.6514C39.6287 38.3632 39.9169 38.3992 40.097 38.3632Z" fill="#026BEA"/>
<path d="M90.679 120.217C90.3547 120.145 90.3547 119.892 90.3908 119.64C90.643 119.784 90.6069 120.037 90.679 120.217Z" fill="#103675"/>
<path d="M90.8592 120.757C90.607 120.613 90.607 120.433 90.643 120.181C90.9312 120.289 90.9312 120.541 90.8592 120.757Z" fill="#103675"/>
<path d="M21.4708 121.55C21.5069 121.802 21.4708 122.018 21.1826 122.126C21.2186 121.874 21.1826 121.622 21.4708 121.55Z" fill="#103675"/>
<path d="M31.7383 43.2988C31.6302 43.3709 31.5221 43.479 31.4141 43.551C31.4861 43.4069 31.5582 43.2628 31.7383 43.2988Z" fill="#026BEA"/>
<path d="M47.9513 33.5715C47.8432 33.6436 47.7712 33.7156 47.6631 33.7877C47.7351 33.7156 47.8432 33.6436 47.9513 33.5715Z" fill="#026BEA"/>
<path d="M90.3908 119.676C90.2827 119.568 90.1746 119.46 90.1025 119.388C90.2106 119.496 90.3187 119.604 90.3908 119.676Z" fill="#103675"/>
<path d="M56.1646 78.3532C53.5347 78.7135 51.3731 75.4711 51.4451 73.3815C51.5172 71.0398 54.0391 68.5899 56.561 68.662C58.3983 68.734 61.1724 70.5714 61.1724 73.5616C61.1364 76.2997 58.9748 78.3532 56.1646 78.3532Z" fill="#4103ED"/>
<path d="M98.2449 7.59601C101.667 7.55998 104.297 9.28929 106.639 11.4149C110.098 14.5853 113.016 18.3321 114.493 22.7994C115.43 25.7176 116.006 28.816 116.042 31.9863C116.078 34.0399 115.934 35.9853 114.961 37.8227C113.124 41.2453 108.729 43.1547 105.27 41.5335C101.415 39.7322 98.2809 36.9581 95.9392 33.2473C95.0745 31.8783 94.0298 30.6173 93.3452 29.1042C92.1203 26.4021 91.1476 23.7001 90.8594 20.7099C90.6072 18.3681 90.5711 16.0624 91.2196 13.8287C91.9762 11.1267 93.3092 8.82093 96.1914 7.81218C96.9119 7.52396 97.5964 7.74012 98.2449 7.59601Z" fill="#24CBFF"/>
<path d="M86.3913 32.1665C88.4809 36.2376 90.9307 40.0204 94.3172 43.1187C96.1186 44.776 98.0641 46.181 100.406 47.442C98.3163 48.0184 96.623 47.3699 95.0018 46.6494C90.6785 44.6679 87.5802 41.3534 85.0943 37.4265C84.3017 36.2015 84.0856 34.7604 83.293 33.5355C84.3738 33.1032 85.2744 32.3827 86.3913 32.1665Z" fill="#026BEA"/>
<path d="M86.3911 32.1664C85.2742 32.3826 84.3376 33.1031 83.3288 33.5355C82.1759 31.2297 81.4914 28.7799 81.1672 26.1859C80.8429 23.7361 80.879 21.2863 81.4914 18.9085C81.8157 17.6475 82.32 16.3866 83.2567 15.3418C82.6083 18.224 83.2928 20.962 83.7972 23.7361C84.3376 26.6543 85.1662 29.4644 86.3911 32.1664Z" fill="#0B8BFF"/>
</svg>
